<svg xmlns="http://www.w3.org/2000/svg" style="width:40px;height:40px" viewBox="0 0 478.7 507.3"><path fill="#B4B3B3" d="M478.1 88.3c.3-2.7-1.5-5.7-4.1-6.6l-229.9-80c-2.6-.9-6.8-.9-9.4 0l-230 80c-2.6.9-4.5 3.9-4.1 6.6l36.8 304.1c.3 2.7 2.6 6 5 7.4L235 505c2.4 1.3 6.4 1.3 8.8 0l192.6-105.2c2.4-1.3 4.7-4.6 5-7.4l36.7-304.1z"/><path fill="#E53238" d="M451.7 107c.3-2.7-1.5-5.7-4.1-6.6L244.1 29.5c-2.6-.9-6.8-.9-9.4 0L31 100.4c-2.6.9-4.5 3.9-4.1 6.6l32.6 269.5c.3 2.7 2.6 6 5 7.4L234.9 477c2.4 1.3 6.4 1.3 8.8 0l170.4-93.1c2.4-1.3 4.7-4.6 5-7.4L451.7 107z"/><path fill="#fff" d="M398.1 227.5h-32.9c-5.4-60.9-53.8-109.3-114.7-114.7V79.9c0-6.2-5-11.2-11.2-11.2-6.2 0-11.2 5-11.2 11.2v32.9c-60.9 5.3-109.3 53.8-114.7 114.7H80.5c-6.2 0-11.2 5-11.2 11.2 0 6.2 5 11.2 11.2 11.2h32.9c5.3 60.9 53.8 109.4 114.7 114.8v32.8c0 6.2 5 11.2 11.2 11.2 6.2 0 11.2-5 11.2-11.2v-32.8c60.9-5.4 109.4-53.9 114.7-114.8h32.9c6.2 0 11.2-5 11.2-11.2 0-6.2-5-11.2-11.2-11.2zm-53.5 0h-40.9c-4.7-27.1-26-48.4-53.1-53.1v-40.8c49.4 5.1 88.7 44.4 94 93.9zm-148.1 0c4-15.4 16.2-27.6 31.6-31.6v31.6h-31.6zm31.6 22.4v31.6c-15.4-4-27.6-16.1-31.6-31.6h31.6zm11.2-22.4c6.2 0 11.2 5 11.2 11.2 0 6.2-5 11.2-11.2 11.2-6.2 0-11.2-5-11.2-11.2 0-6.2 5-11.2 11.2-11.2zm11.2 22.4H282c-4 15.4-16.1 27.5-31.5 31.5v-31.5zm0-22.4V196c15.4 4 27.5 16.1 31.5 31.5h-31.5zm-11.2-115.3c6.2 0 11.2 5 11.2 11.2 0 6.2-5 11.2-11.2 11.2-6.2 0-11.2-5-11.2-11.2 0-6.2 5-11.2 11.2-11.2zm-11.2 21.3v40.8c-27.1 4.7-48.5 26-53.2 53.2h-40.8c5.3-49.5 44.6-88.8 94-94zm-104 116.4c-6.2 0-11.2-5-11.2-11.2 0-6.2 5-11.2 11.2-11.2 6.2 0 11.2 5 11.2 11.2 0 6.2-5 11.2-11.2 11.2zm10 0h40.8c4.7 27.1 26.1 48.5 53.2 53.2V344c-49.5-5.3-88.8-44.6-94-94.1zm105.2 115.2c-6.2 0-11.2-5-11.2-11.2s5-11.2 11.2-11.2c6.2 0 11.2 5 11.2 11.2s-5 11.2-11.2 11.2zm11.2-21.1v-41c27.1-4.7 48.4-26.1 53.1-53.1h40.9c-5.1 49.5-44.5 88.8-94 94.1zm104.1-94.1c-6.2 0-11.2-5-11.2-11.2 0-6.2 5-11.2 11.2-11.2 6.2 0 11.2 5 11.2 11.2 0 6.2-5 11.2-11.2 11.2z"/><path d="M451.7 107c.3-2.7-1.5-5.7-4.1-6.6L244.1 29.5c-2.6-.9-4.7.6-4.7 3.4v441.5c0 2.8 2 3.9 4.4 2.6l170.4-93.1c2.4-1.3 4.7-4.6 5-7.4L451.7 107z" opacity=".4"/></svg>