<svg xmlns="http://www.w3.org/2000/svg" xmlns:xlink="http://www.w3.org/1999/xlink" width="24" height="192" viewBox="0 0 24 192"><svg y="0" id="kinopoisk" viewBox="0 0 24 24" width="24" height="24"><g id="Border"><path fill="#FFFFFF" stroke="#898989" stroke-width="0.5" stroke-miterlimit="10" d="M19.4 23.7H4.6c-2.3 0-4.3-1.9-4.3-4.3V4.6c0-2.3 1.9-4.3 4.3-4.3h14.8c2.3 0 4.3 1.9 4.3 4.3v14.8C23.7 21.8 21.8 23.7 19.4 23.7z"/></g><g id="Block"><path fill="#898989" d="M12 1.8C6.3 1.8 1.8 6.3 1.8 12S6.3 22.3 12 22.3 22.3 17.7 22.3 12 17.7 1.8 12 1.8zM16.1 4.7c1.8 0 3.3 1.5 3.3 3.3s-1.5 3.3-3.3 3.3 -3.3-1.5-3.3-3.3S14.3 4.7 16.1 4.7zM7.9 4.7c1.8 0 3.3 1.5 3.3 3.3s-1.5 3.3-3.3 3.3S4.7 9.7 4.7 7.9 6.1 4.7 7.9 4.7zM7.9 19.3c-1.8 0-3.3-1.5-3.3-3.3s1.5-3.3 3.3-3.3 3.3 1.5 3.3 3.3S9.7 19.3 7.9 19.3zM10.5 12c0-0.8 0.7-1.5 1.5-1.5s1.5 0.7 1.5 1.5 -0.7 1.5-1.5 1.5S10.5 12.8 10.5 12zM16.1 19.3c-1.8 0-3.3-1.5-3.3-3.3s1.5-3.3 3.3-3.3 3.3 1.5 3.3 3.3S17.9 19.3 16.1 19.3z"/></g><g id="Blend" opacity="0.28"><path opacity="0.5" fill="#FFFFFF" d="M19.2 0.6H4.8c-2.3 0-4.1 1.8-4.1 4.1v4.2c3.2 1.8 7.1 2.9 11.2 2.9 4.3 0 8.2-1.1 11.5-3V4.7C23.4 2.5 21.5 0.6 19.2 0.6z"/></g></svg><svg y="24" id="add" width="24" height="24" viewBox="0 0 24 24"><path d="M19 13h-6v6h-2v-6h-6v-2h6v-6h2v6h6v2z"/><path d="M0 0h24v24h-24z" fill="none"/></svg><svg y="48" id="keyboard_arrow_right" width="24" height="24" viewBox="0 0 24 24"><path d="M8.59 16.34l4.58-4.59-4.58-4.59 1.41-1.41 6 6-6 6z"/><path d="M0-.25h24v24h-24z" fill="none"/></svg><svg y="72" id="menu" width="24" height="24" viewBox="0 0 24 24"><path d="M0 0h24v24h-24z" fill="none"/><path d="M3 18h18v-2h-18v2zm0-5h18v-2h-18v2zm0-7v2h18v-2h-18z"/></svg><svg y="96" id="done" width="24" height="24" viewBox="0 0 24 24"><path d="M0 0h24v24h-24z" fill="none"/><path d="M9 16.17l-4.17-4.17-1.42 1.41 5.59 5.59 12-12-1.41-1.41z"/></svg><svg y="120" id="cross" width="24" height="24" viewBox="0 0 24 24"><path d="M19 6.41l-1.41-1.41-5.59 5.59-5.59-5.59-1.41 1.41 5.59 5.59-5.59 5.59 1.41 1.41 5.59-5.59 5.59 5.59 1.41-1.41-5.59-5.59z"/><path d="M0 0h24v24h-24z" fill="none"/></svg><svg y="144" id="edit" width="24" height="24" viewBox="0 0 24 24"><path d="M3 17.25v3.75h3.75l11.06-11.06-3.75-3.75-11.06 11.06zm17.71-10.21c.39-.39.39-1.02 0-1.41l-2.34-2.34c-.39-.39-1.02-.39-1.41 0l-1.83 1.83 3.75 3.75 1.83-1.83z"/><path d="M0 0h24v24h-24z" fill="none"/></svg><svg y="168" id="keyboard_arrow_left" width="24" height="24" viewBox="0 0 24 24"><path d="M15.41 16.09l-4.58-4.59 4.58-4.59-1.41-1.41-6 6 6 6z"/><path d="M0-.5h24v24h-24z" fill="none"/></svg></svg>
