<svg xmlns="http://www.w3.org/2000/svg" version="1.1" x="0px" y="0px" viewBox="0 0 24 24" width="24" height="24" enable-background="new 0 0 24 24" xml:space="preserve"><g id="Border"><path fill="#FFFFFF" stroke="#898989" stroke-width="0.5" stroke-miterlimit="10" d="M19.4 23.7H4.6c-2.3 0-4.3-1.9-4.3-4.3V4.6c0-2.3 1.9-4.3 4.3-4.3h14.8c2.3 0 4.3 1.9 4.3 4.3v14.8C23.7 21.8 21.8 23.7 19.4 23.7z"/></g><g id="Block"><path fill="#898989" d="M12 1.8C6.3 1.8 1.8 6.3 1.8 12S6.3 22.3 12 22.3 22.3 17.7 22.3 12 17.7 1.8 12 1.8zM16.1 4.7c1.8 0 3.3 1.5 3.3 3.3s-1.5 3.3-3.3 3.3 -3.3-1.5-3.3-3.3S14.3 4.7 16.1 4.7zM7.9 4.7c1.8 0 3.3 1.5 3.3 3.3s-1.5 3.3-3.3 3.3S4.7 9.7 4.7 7.9 6.1 4.7 7.9 4.7zM7.9 19.3c-1.8 0-3.3-1.5-3.3-3.3s1.5-3.3 3.3-3.3 3.3 1.5 3.3 3.3S9.7 19.3 7.9 19.3zM10.5 12c0-0.8 0.7-1.5 1.5-1.5s1.5 0.7 1.5 1.5 -0.7 1.5-1.5 1.5S10.5 12.8 10.5 12zM16.1 19.3c-1.8 0-3.3-1.5-3.3-3.3s1.5-3.3 3.3-3.3 3.3 1.5 3.3 3.3S17.9 19.3 16.1 19.3z"/></g><g id="Blend" opacity="0.28"><path opacity="0.5" fill="#FFFFFF" d="M19.2 0.6H4.8c-2.3 0-4.1 1.8-4.1 4.1v4.2c3.2 1.8 7.1 2.9 11.2 2.9 4.3 0 8.2-1.1 11.5-3V4.7C23.4 2.5 21.5 0.6 19.2 0.6z"/></g></svg>